<svg id="Group_153" data-name="Group 153" xmlns="http://www.w3.org/2000/svg" width="11.679" height="11.688" viewBox="0 0 11.679 11.688">
  <path id="Path_38" data-name="Path 38" d="M-2358.088-510.525c-.038.142-.067.287-.116.425a1.935,1.935,0,0,1-1.814,1.285q-.746,0-1.494,0a1.909,1.909,0,0,1-1.908-1.728c-.048-.6-.024-1.2-.016-1.8a1.713,1.713,0,0,1,.1-.51,1.933,1.933,0,0,1,1.793-1.315q.774-.013,1.551,0a1.948,1.948,0,0,1,1.879,1.644.267.267,0,0,0,.022.061Zm-.978-.957c0-.247,0-.494,0-.741a.958.958,0,0,0-.937-.967c-.5-.013-1.011-.012-1.516,0a.961.961,0,0,0-.945.95c-.01.5-.009,1,0,1.493a.962.962,0,0,0,.974.954q.724.005,1.448,0a.959.959,0,0,0,.977-.983C-2359.065-511.011-2359.066-511.247-2359.066-511.482Z" transform="translate(2369.767 520.492)" fill="#707070"/>
  <path id="Path_39" data-name="Path 39" d="M-2358.019-717.846c-.018.076-.036.153-.055.229a1.954,1.954,0,0,1-1.88,1.478q-.74.007-1.482,0a1.953,1.953,0,0,1-1.938-1.939q-.006-.735,0-1.471a1.949,1.949,0,0,1,1.657-1.925.224.224,0,0,0,.05-.021h1.939a.4.4,0,0,0,.063.022,1.922,1.922,0,0,1,1.576,1.394c.031.1.048.2.072.294Zm-.978-.967c0-.243,0-.486,0-.729a.959.959,0,0,0-.974-.974q-.724,0-1.448,0a.961.961,0,0,0-.977.951q-.014.746,0,1.493a.96.96,0,0,0,.943.953c.5.013,1.01.013,1.515,0a.959.959,0,0,0,.941-.975C-2358.995-718.334-2359-718.573-2359-718.813Z" transform="translate(2369.698 721.495)" fill="#707070"/>
  <path id="Path_40" data-name="Path 40" d="M-2567.12-721.5c.155.044.316.077.466.135a1.936,1.936,0,0,1,1.24,1.778c.007.509.008,1.019,0,1.528a1.95,1.95,0,0,1-1.918,1.914q-.763.011-1.528,0a1.945,1.945,0,0,1-1.908-1.943q0-.741,0-1.482a1.942,1.942,0,0,1,1.648-1.907.351.351,0,0,0,.063-.022Zm-2.671,2.671h0c0,.243,0,.486,0,.73a.963.963,0,0,0,.952.976q.747.015,1.493,0a.96.96,0,0,0,.953-.942q.019-.758,0-1.516a.958.958,0,0,0-.976-.94c-.494,0-.988,0-1.482,0a.956.956,0,0,0-.939.939C-2569.794-719.326-2569.791-719.075-2569.791-718.825Z" transform="translate(2570.77 721.495)" fill="#707070"/>
  <path id="Path_41" data-name="Path 41" d="M-2568.117-508.788c-.345-.011-.692,0-1.034-.039a1.929,1.929,0,0,1-1.611-1.607,2.869,2.869,0,0,1-.023-.352q0-.735,0-1.47a1.907,1.907,0,0,1,1.713-1.873,15.169,15.169,0,0,1,1.969,0,1.9,1.9,0,0,1,1.627,1.52,2.577,2.577,0,0,1,.044.452c0,.46,0,.919,0,1.379a1.948,1.948,0,0,1-1.572,1.939,1.729,1.729,0,0,1-.327.034c-.262,0-.524,0-.786,0Zm0-.989h0c.243,0,.486,0,.729,0a.961.961,0,0,0,.977-.951c.011-.5.01-1,0-1.493a.959.959,0,0,0-.941-.953q-.758-.019-1.516,0a.957.957,0,0,0-.94.963c0,.5-.005,1,0,1.493a.957.957,0,0,0,.938.94C-2568.62-509.774-2568.368-509.777-2568.118-509.777Z" transform="translate(2570.788 520.477)" fill="#707070"/>
</svg>
