<svg xmlns="http://www.w3.org/2000/svg" xmlns:xlink="http://www.w3.org/1999/xlink" width="42.346" height="31.797" viewBox="0 0 42.346 31.797">
  <defs>
    <linearGradient id="linear-gradient" y1="0.5" x2="1" y2="0.5" gradientUnits="objectBoundingBox">
      <stop offset="0" stop-color="#0d988c"/>
      <stop offset="1" stop-color="#1e6eb7"/>
    </linearGradient>
    <linearGradient id="linear-gradient-2" x1="-0.001" y1="0.499" x2="0.999" y2="0.499" xlink:href="#linear-gradient"/>
    <linearGradient id="linear-gradient-3" x1="0" y1="0.5" x2="1" y2="0.5" xlink:href="#linear-gradient"/>
    <linearGradient id="linear-gradient-4" x1="0" y1="0.5" x2="1" y2="0.5" xlink:href="#linear-gradient"/>
    <linearGradient id="linear-gradient-5" x1="-0.001" y1="0.5" x2="1" y2="0.5" xlink:href="#linear-gradient"/>
    <linearGradient id="linear-gradient-6" x1="0" y1="0.535" x2="1" y2="0.535" xlink:href="#linear-gradient"/>
    <linearGradient id="linear-gradient-7" x1="0" y1="0.5" x2="1" y2="0.5" xlink:href="#linear-gradient"/>
  </defs>
  <g id="Group_1" data-name="Group 1" transform="translate(-302.953 -209.04)">
    <g id="Group_148" data-name="Group 148" transform="translate(302.953 209.04)">
      <path id="Path_489" data-name="Path 489" d="M349.878,316.017a1.037,1.037,0,0,1-.552-.537A1.091,1.091,0,0,0,349.878,316.017Z" transform="translate(-341.005 -296.38)" fill="url(#linear-gradient)"/>
      <path id="Path_490" data-name="Path 490" d="M354.555,220.626h0Z" transform="translate(-345.294 -218.547)" fill="url(#linear-gradient-2)"/>
      <path id="Path_491" data-name="Path 491" d="M353.037,318.5a1.132,1.132,0,0,1-.249.039.879.879,0,0,1-.387-.071.845.845,0,0,0,.111.034A1.212,1.212,0,0,0,353.037,318.5Z" transform="translate(-343.528 -298.833)" fill="url(#linear-gradient-3)"/>
      <path id="Path_492" data-name="Path 492" d="M356.638,315.85l-.012.026a.906.906,0,0,1-.64.474A1.077,1.077,0,0,0,356.638,315.85Z" transform="translate(-346.469 -296.683)" fill="url(#linear-gradient-4)"/>
      <path id="Path_493" data-name="Path 493" d="M359.693,315.136a1.037,1.037,0,0,1-.058.125Z" transform="translate(-349.464 -296.098)" fill="url(#linear-gradient-5)"/>
      <path id="Path_494" data-name="Path 494" d="M351.741,209.052h0Z" transform="translate(-337.5 -209.049)" fill="url(#linear-gradient-6)"/>
      <path id="Path_495" data-name="Path 495" d="M345.3,210.081a1.038,1.038,0,1,0-2.077,0q0,6.363,0,12.726l-4.136-9.347-1.655-3.739,0-.006-.041-.093-.029-.064a.8.8,0,0,0-.367-.374l-.009,0a.83.83,0,0,0-.244-.1,1.323,1.323,0,0,0-.552,0,.918.918,0,0,0-.146.054h0l-.01,0a.827.827,0,0,0-.462.418l-.027.059-.043.094s0,0,0,0l-2.952,6.508-1.213-2.762-1.714-3.9a1.045,1.045,0,0,0-1.9.248l-3.238,13.37-2.081-9.451-.863-3.919a.9.9,0,0,0-.354-.53l-.007,0a1,1,0,0,0-.64-.228h-11.4l-5.143,0a1.038,1.038,0,0,0,0,2.077l6.211,0h.971v16.59c0,.017,0,.033,0,.05s0,.032,0,.049,0,.017,0,.025,0,.016,0,.024,0,.011,0,.017a1.05,1.05,0,0,0,.047.175l.01.027.01.024.018.04a1.091,1.091,0,0,0,.552.537.85.85,0,0,0,.111.034,1.213,1.213,0,0,0,.525,0l.007,0a1.077,1.077,0,0,0,.653-.5l0,0,.058-.125,6.418-13.6.572-1.212q1.2,5.436,2.394,10.87.432,1.96.863,3.919a1.047,1.047,0,0,0,2,0q1.664-6.873,3.329-13.745l.245-1.011,2.582,5.881c.07.2.169.388.253.577l.011.024.388.883,1.551,3.532,1.7,3.864.046.1c.01.023.021.046.031.069a.833.833,0,0,0,.5.438.89.89,0,0,0,.4.076,1.114,1.114,0,0,0,.192-.025.989.989,0,0,0,.737-.554h0a1.007,1.007,0,0,0,.109-.458V214.979l4.137,9.349,1.727,3.9a1.042,1.042,0,0,0,1.173.477,1.058,1.058,0,0,0,.762-1Q345.3,218.892,345.3,210.081Zm-33.084,1.038h0Zm1.038,11.966V211.12H318.9Q316.076,217.1,313.252,223.085Zm22.172-.3q-.883-2.008-1.765-4.018l1.765-3.891Z" transform="translate(-302.953 -209.04)" fill="url(#linear-gradient-7)"/>
    </g>
    <g id="Group_149" data-name="Group 149" transform="translate(307.557 230.626)">
      <path id="Path_496" data-name="Path 496" d="M329.851,343.248a.716.716,0,0,0-.513-.214.724.724,0,0,0-.52.214.731.731,0,0,0,1.033,1.033.729.729,0,0,0,0-1.033Z" transform="translate(-328.61 -340.576)" fill="#0d988c"/>
      <path id="Path_497" data-name="Path 497" d="M364.931,331.946v3.239a.427.427,0,0,1-.375.457h-5.129a1.881,1.881,0,0,0,.051-.457v-1.357a1.891,1.891,0,0,0-1.876-1.882h-1.455a1.893,1.893,0,0,0-1.883,1.882v1.813h-3.789a1.871,1.871,0,0,0,.052-.457v-.964a1.893,1.893,0,0,0-1.877-1.882h-2.183a.479.479,0,0,1-.33-.138.442.442,0,0,1-.138-.318v-.606a.447.447,0,0,1,.138-.317.455.455,0,0,1,.33-.139h2.639V329.4h-2.639a1.882,1.882,0,0,0-1.328.555,1.859,1.859,0,0,0-.56,1.322v.606a1.9,1.9,0,0,0,1.889,1.877h2.183a.451.451,0,0,1,.324.138.481.481,0,0,1,.133.323v.964a.461.461,0,0,1-.456.457H334.339v-3.7h-1.421v5.775a.435.435,0,0,1-.139.317.481.481,0,0,1-.324.139h-1.969a.461.461,0,0,1-.455-.457V334.5H328.61v3.222a1.86,1.86,0,0,0,.549,1.322,1.837,1.837,0,0,0,1.328.555h1.969a1.895,1.895,0,0,0,1.883-1.877v-.658h30.217a1.717,1.717,0,0,0,1.27-.554,1.922,1.922,0,0,0,.526-1.323v-3.239Zm-6.873,3.239a.437.437,0,0,1-.138.318.473.473,0,0,1-.317.138h-1.918v-1.813a.483.483,0,0,1,.139-.324.429.429,0,0,1,.324-.138H357.6a.465.465,0,0,1,.455.462Z" transform="translate(-328.61 -329.388)" fill="url(#linear-gradient-7)"/>
      <path id="Path_498" data-name="Path 498" d="M522.242,329.549a.733.733,0,1,0,.214.514A.72.72,0,0,0,522.242,329.549Zm-2.142,0a.739.739,0,0,0-1.04,0,.727.727,0,1,0,1.04,0Z" transform="translate(-484.714 -329.335)" fill="#1e6eb7"/>
    </g>
  </g>
</svg>
