<svg xmlns="http://www.w3.org/2000/svg" width="13.564" height="14.239" viewBox="0 0 13.564 14.239">
  <path id="Path_7" data-name="Path 7" d="M-1184.1-5.98a6.446,6.446,0,0,0,.644-.159,2.886,2.886,0,0,0,1.915-2.054c.036-.129.086-.162.213-.161q.973.01,1.946,0A1.778,1.778,0,0,0-1177.6-9.83a2.282,2.282,0,0,0-.069-.935c-.391-1.743-.766-3.489-1.17-5.229a5.5,5.5,0,0,0-4.433-4.146,5.5,5.5,0,0,0-6.105,3.5c-.227.609-.376,1.248-.552,1.876-.382,1.363-.757,2.728-1.136,4.092a1.775,1.775,0,0,0,1.366,2.279,2.146,2.146,0,0,0,.414.036q.924.006,1.849,0c.094,0,.131.024.159.12A2.918,2.918,0,0,0-1184.772-6a.387.387,0,0,1,.064.022Zm1.344-2.364a1.742,1.742,0,0,1-1.778,1.17,1.713,1.713,0,0,1-1.513-1.17Z" transform="translate(1191.141 20.219)" fill="#707070"/>
</svg>
