<svg id="Group_152" data-name="Group 152" xmlns="http://www.w3.org/2000/svg" width="14.239" height="14.239" viewBox="0 0 14.239 14.239">
  <path id="Path_4" data-name="Path 4" d="M-1243.075,940.6a1.149,1.149,0,0,1-.471-.325q-1.631-1.638-3.268-3.272a1.378,1.378,0,0,1-.1-.122,5.892,5.892,0,0,1-5.03,1.209,5.759,5.759,0,0,1-3.506-2.252,5.953,5.953,0,0,1,.561-7.744,5.949,5.949,0,0,1,7.744-.56,5.776,5.776,0,0,1,2.342,4.038,5.881,5.881,0,0,1-1.3,4.5,1.031,1.031,0,0,1,.128.093q1.631,1.629,3.262,3.258a1.168,1.168,0,0,1,.334.481v.167a.665.665,0,0,1-.528.528Zm-12.342-8.3a4.738,4.738,0,0,0,4.723,4.746,4.75,4.75,0,0,0,4.758-4.759,4.74,4.74,0,0,0-4.734-4.722A4.734,4.734,0,0,0-1255.417,932.3Z" transform="translate(1256.619 -926.36)" fill="#9a9a9a"/>
</svg>
