<svg xmlns="http://www.w3.org/2000/svg" width="13.233" height="13.233" viewBox="0 0 13.233 13.233">
  <g id="settings" transform="translate(-0.5 -0.5)">
    <circle id="Ellipse_62" data-name="Ellipse 62" cx="3" cy="3" r="3" transform="translate(4.117 4.117)" fill="none" stroke="#707070" stroke-linecap="round" stroke-linejoin="round" stroke-width="1"/>
    <path id="Path_726" data-name="Path 726" d="M11.231,8.785A.917.917,0,0,0,11.415,9.8l.033.033A1.113,1.113,0,1,1,9.875,11.4l-.033-.033a.925.925,0,0,0-1.568.656v.095a1.112,1.112,0,0,1-2.224,0v-.05a.917.917,0,0,0-.6-.84.917.917,0,0,0-1.012.183l-.033.033A1.113,1.113,0,1,1,2.829,9.875l.033-.033a.925.925,0,0,0-.656-1.568H2.112a1.112,1.112,0,0,1,0-2.224h.05a.917.917,0,0,0,.84-.6.917.917,0,0,0-.183-1.012L2.785,4.4A1.113,1.113,0,1,1,4.359,2.829l.033.033A.917.917,0,0,0,5.4,3.046h.044A.917.917,0,0,0,6,2.207V2.112a1.112,1.112,0,0,1,2.224,0v.05A.925.925,0,0,0,9.8,2.818l.033-.033A1.113,1.113,0,1,1,11.4,4.359l-.033.033A.917.917,0,0,0,11.187,5.4v.044a.917.917,0,0,0,.84.556h.095a1.112,1.112,0,0,1,0,2.224h-.05A.917.917,0,0,0,11.231,8.785Z" fill="none" stroke="#707070" stroke-linecap="round" stroke-linejoin="round" stroke-width="1"/>
  </g>
</svg>
